<svg xmlns="http://www.w3.org/2000/svg" width="390" height="844" viewBox="0 0 390 844">
  <rect width="390" height="844" fill="#111827"/>
  <rect x="0" y="0" width="390" height="120" fill="#111827" opacity="0.95"/>
  <text x="24" y="52" fill="#22d3ee" font-family="Inter, system-ui, sans-serif" font-size="22" font-weight="700">Quicker</text>
  <text x="108" y="52" fill="#ffffff" font-family="Inter, system-ui, sans-serif" font-size="22" font-weight="700">-pod</text>
  <text x="24" y="78" fill="#6b7280" font-family="Inter, system-ui, sans-serif" font-size="12">Protocol Lab</text>
  <rect x="24" y="110" width="342" height="56" rx="16" fill="#1f2937" stroke="#22d3ee33"/>
  <text x="40" y="145" fill="#9ca3af" font-family="Inter, system-ui, sans-serif" font-size="13">Explorer</text>
  <rect x="110" y="126" width="72" height="32" rx="12" fill="#22d3ee"/>
  <text x="126" y="147" fill="#111827" font-family="Inter, system-ui, sans-serif" font-size="12" font-weight="600">Monitor</text>
  <rect x="24" y="190" width="342" height="140" rx="20" fill="#1f293780" stroke="#ffffff1a"/>
  <text x="40" y="220" fill="#ffffff" font-family="Inter, system-ui, sans-serif" font-size="16" font-weight="600">Bluetooth Status</text>
  <rect x="40" y="240" width="140" height="70" rx="14" fill="#1f2937"/>
  <text x="56" y="265" fill="#6b7280" font-family="Inter, system-ui, sans-serif" font-size="10">CONNECTION</text>
  <text x="56" y="290" fill="#22c55e" font-family="Inter, system-ui, sans-serif" font-size="14" font-weight="600">Connected</text>
  <rect x="196" y="240" width="154" height="70" rx="14" fill="#1f2937"/>
  <text x="212" y="265" fill="#6b7280" font-family="Inter, system-ui, sans-serif" font-size="10">LAST PACKET</text>
  <text x="212" y="290" fill="#22d3ee" font-family="JetBrains Mono, monospace" font-size="13">20 01 00 64</text>
  <rect x="24" y="350" width="342" height="180" rx="20" fill="#1f293780" stroke="#ffffff1a"/>
  <text x="40" y="380" fill="#ffffff" font-family="Inter, system-ui, sans-serif" font-size="16" font-weight="600">GATT Explorer</text>
  <text x="40" y="410" fill="#6b7280" font-family="JetBrains Mono, monospace" font-size="11">0000fff0-0000-1000-8000-00805f9b34fb</text>
  <rect x="40" y="430" width="310" height="80" rx="14" fill="#111827"/>
  <text x="56" y="458" fill="#ffffff" font-family="Inter, system-ui, sans-serif" font-size="13">Command Channel</text>
  <text x="56" y="482" fill="#22d3ee" font-family="Inter, system-ui, sans-serif" font-size="11">READ · WRITE · NOTIFY</text>
  <rect x="0" y="760" width="390" height="84" fill="#111827f2"/>
  <text x="48" y="808" fill="#22d3ee" font-family="Inter, system-ui, sans-serif" font-size="11">Home</text>
  <text x="128" y="808" fill="#6b7280" font-family="Inter, system-ui, sans-serif" font-size="11">Connect</text>
  <text x="208" y="808" fill="#6b7280" font-family="Inter, system-ui, sans-serif" font-size="11">Lab</text>
  <text x="288" y="808" fill="#6b7280" font-family="Inter, system-ui, sans-serif" font-size="11">Settings</text>
</svg>
